<svg viewBox="0 0 50 50" xml:space="preserve" xmlns="http://www.w3.org/2000/svg" enable-background="new 0 0 50 50"><path d="m48.882 22.585-4.271-1.412a19.78 19.78 0 0 0-.714-2.673l2.999-3.363-.293-.603a24.182 24.182 0 0 0-1.746-3.017l-.376-.553-4.391.914a20.32 20.32 0 0 0-1.968-1.969l.913-4.391-.553-.376a24.055 24.055 0 0 0-3.019-1.746l-.602-.291L31.5 6.104a19.939 19.939 0 0 0-2.673-.714l-1.412-4.271-.667-.049a24.282 24.282 0 0 0-3.496 0l-.667.048-1.412 4.272c-.906.176-1.802.415-2.673.714l-3.363-2.999-.603.293a24.182 24.182 0 0 0-3.017 1.746l-.552.376.914 4.391a20.32 20.32 0 0 0-1.969 1.968l-4.39-.914-.376.553a24.055 24.055 0 0 0-1.746 3.019l-.291.602L6.104 18.5a19.939 19.939 0 0 0-.714 2.673l-4.271 1.412-.049.667C1.028 23.831 1 24.411 1 25s.028 1.169.07 1.748l.048.667 4.271 1.412c.176.909.415 1.804.714 2.673l-2.999 3.363.293.603a24.182 24.182 0 0 0 1.746 3.017l.376.553 4.391-.914a20.32 20.32 0 0 0 1.968 1.969l-.913 4.391.553.376a24.055 24.055 0 0 0 3.019 1.746l.602.291 3.362-2.997c.871.299 1.766.538 2.673.714l1.412 4.271.667.048c.578.041 1.158.069 1.747.069s1.169-.028 1.748-.07l.667-.048 1.412-4.271a19.78 19.78 0 0 0 2.673-.714l3.363 2.999.603-.293a24.182 24.182 0 0 0 3.017-1.746l.553-.376-.914-4.391a20.32 20.32 0 0 0 1.969-1.968l4.391.913.376-.553a24.055 24.055 0 0 0 1.746-3.019l.291-.602-2.999-3.361c.299-.871.538-1.767.714-2.673l4.271-1.412.048-.667c.043-.579.071-1.159.071-1.748s-.028-1.169-.07-1.748l-.048-.667zm-1.906 3.353-4.135 1.367-.098.599a17.836 17.836 0 0 1-.925 3.463l-.214.566 2.898 3.252c-.287.55-.601 1.091-.936 1.617l-4.247-.884-.384.47a18.215 18.215 0 0 1-2.549 2.548l-.47.384.885 4.247c-.525.334-1.065.647-1.617.937l-3.252-2.9-.567.216c-1.11.421-2.275.731-3.462.924l-.599.098-1.367 4.135c-.621.031-1.256.031-1.877 0l-1.367-4.135-.599-.098a17.77 17.77 0 0 1-3.462-.925l-.567-.215-3.252 2.899a21.733 21.733 0 0 1-1.617-.936l.884-4.247-.47-.384a18.215 18.215 0 0 1-2.548-2.549l-.384-.47-4.247.885a22.569 22.569 0 0 1-.937-1.617l2.9-3.252-.216-.567a17.866 17.866 0 0 1-.924-3.462l-.098-.599-4.135-1.367a19.408 19.408 0 0 1 .003-1.876l4.135-1.367.098-.599a17.77 17.77 0 0 1 .925-3.462l.215-.567-2.899-3.252c.287-.55.601-1.091.936-1.617l4.247.884.384-.47a18.215 18.215 0 0 1 2.549-2.548l.47-.384-.885-4.247a22.569 22.569 0 0 1 1.617-.937l3.252 2.899.566-.214a17.907 17.907 0 0 1 3.463-.925l.599-.098 1.367-4.135a18.953 18.953 0 0 1 1.877 0l1.367 4.135.599.098a17.77 17.77 0 0 1 3.462.925l.567.215 3.252-2.899c.55.287 1.091.601 1.617.936l-.884 4.247.47.384c.928.76 1.785 1.617 2.548 2.549l.384.47 4.247-.885c.334.525.647 1.065.937 1.617l-2.9 3.252.216.567c.421 1.11.731 2.275.924 3.462l.098.599 4.135 1.367a19.408 19.408 0 0 1-.003 1.876z" fill="#60a5fa" class="fill-000000"></path><path d="M24.709 11.004c-5.189.147-9.542 4.488-9.703 9.677a9.95 9.95 0 0 0 3.448 7.869C20.072 29.95 21 31.911 21 34v5h3v2h2v-2h3v-5.068c0-2 .947-3.979 2.599-5.428A9.986 9.986 0 0 0 35 21a9.92 9.92 0 0 0-3.031-7.172c-1.954-1.899-4.54-2.873-7.26-2.824zM27 37h-4v-2h4v2zm3.28-10c-1.82 1.598-2.963 3.726-3.223 6H26v-9.586l2.707-2.707-1.414-1.414L25 21.586l-2.293-2.293-1.414 1.414L24 23.414V33h-1.05c-.245-2.261-1.376-4.395-3.188-5.962a7.962 7.962 0 0 1-2.758-6.295c.129-4.15 3.61-7.622 7.761-7.739 2.188-.075 4.246.738 5.81 2.258A7.936 7.936 0 0 1 33 21a7.984 7.984 0 0 1-2.72 6z" fill="#60a5fa" class="fill-000000"></path></svg>