<svg data-name="Layer 1" viewBox="0 0 256 256" xmlns="http://www.w3.org/2000/svg"><path d="m185 217.38 1.3 7.35h13.32a7.19 7.19 0 0 0 7.19-7.19V30.37h-16.36a2 2 0 0 1-2-2V12H61.36a7.19 7.19 0 0 0-7.17 7.19v198.36a7.19 7.19 0 0 0 7.17 7.19h81.41l1.3-7.35a24.13 24.13 0 1 1 40.93 0ZM77.33 37.55a2 2 0 0 1 2-2h97.34a2 2 0 0 1 0 4H79.33a2 2 0 0 1-2-2ZM61 140.1h115.67a2 2 0 1 1 0 4H61a2 2 0 0 1 0-4Zm134-73H70.15a2 2 0 0 1 0-4H195a2 2 0 0 1 0 4Zm0 25.67H61a2 2 0 0 1 0-4h134a2 2 0 0 1 0 4ZM61 114.44h134a2 2 0 1 1 0 4H61a2 2 0 0 1 0-4Z" fill="#effafe" class="fill-effafe"></path><path d="M164.54 224.73a20.13 20.13 0 1 0-20.13-20.13 20.11 20.11 0 0 0 20.13 20.13Z" fill="#ffdd00" class="fill-ffdd00"></path><path d="M164.54 184.47c-.51 0-1 0-1.5.08a20.11 20.11 0 0 1 0 40.12c.5 0 1 .08 1.5.08a20.13 20.13 0 1 0 0-40.27Z" fill="#efc803" class="fill-efc803"></path><path d="M201.81 30.37v187.18a7.19 7.19 0 0 1-7.19 7.19h5a7.19 7.19 0 0 0 7.19-7.19V30.37Z" fill="#e4ebed" class="fill-e4ebed"></path><path d="M176.42 238.27a2 2 0 0 1 1.76-.31l6.76 2-2.28-12.88c-.93-5.29-.76-4.33-1-5.49a24.58 24.58 0 0 1-13.4 6.83l2.48 14ZM147.39 221.65 144.15 240l6.76-2a2 2 0 0 1 1.76.31l5.66 4.19 2.47-14c-6.72-1.22-10.04-3.9-13.41-6.85Z" fill="#eb5639" class="fill-eb5639"></path><path d="m179.66 227.09 2.11 11.91 3.17.94-2.28-12.88c-.93-5.29-.76-4.33-1-5.49a33.52 33.52 0 0 1-2.6 2.19ZM147.39 221.65l-.38 2.18a23.08 23.08 0 0 0 10.8 4.62l-2.13 12.06 2.65 2 2.47-14c-6.72-1.23-10.04-3.91-13.41-6.86Z" fill="#d84936" class="fill-d84936"></path><path d="M192.45 26.37h11.53l-11.53-11.53v11.53z" fill="#effafe" class="fill-effafe"></path><path d="M211.31 217.55V28.37a2.66 2.66 0 0 0-.73-1.77L192.21 8.23a2.61 2.61 0 0 0-1.77-.73H56.36a11.69 11.69 0 0 0-11.67 11.69v198.36a11.69 11.69 0 0 0 11.67 11.69h85.11l-2.32 13.15a2.5 2.5 0 0 0 3.17 2.83l8.66-2.58 7.25 5.38a2.5 2.5 0 0 0 4-1.57l2.34-13.28 2.34 13.28a2.5 2.5 0 0 0 3.95 1.58l7.26-5.38 8.66 2.58a2.5 2.5 0 0 0 3.17-2.83l-2.32-13.15h12a11.7 11.7 0 0 0 11.68-11.7ZM192.95 16l9.82 9.82h-9.82ZM158 241.58l-5-3.71a2.5 2.5 0 0 0-2.2-.39l-6 1.78 2.94-16.66a24.42 24.42 0 0 0 12.48 6.22Zm6.56-17.35a19.63 19.63 0 1 1 19.63-19.63 19.63 19.63 0 0 1-19.65 19.63Zm13.78 13.25a2.49 2.49 0 0 0-2.2.39l-5 3.72-2.25-12.74a25 25 0 0 0 12.47-6.24l2.95 16.68Zm8.4-13.25-1.19-6.75a24.63 24.63 0 1 0-42 0l-1.19 6.75h-86a6.69 6.69 0 0 1-6.67-6.69V19.19a6.69 6.69 0 0 1 6.67-6.69h131.59v15.87a2.5 2.5 0 0 0 2.5 2.5h15.86v186.68a6.69 6.69 0 0 1-6.69 6.69Z" fill="#1d9bf0" class="fill-263238"></path><path d="M79.33 40.05h97.34a2.5 2.5 0 0 0 0-5H79.33a2.5 2.5 0 0 0 0 5ZM195 62.6H70.15a2.5 2.5 0 0 0 0 5H195a2.5 2.5 0 0 0 0-5ZM195 88.27H61a2.5 2.5 0 0 0 0 5h134a2.5 2.5 0 0 0 0-5ZM195 113.94H61a2.5 2.5 0 0 0 0 5h134a2.5 2.5 0 1 0 0-5ZM176.67 139.6H61a2.5 2.5 0 0 0 0 5h115.67a2.5 2.5 0 1 0 0-5Z" fill="#1d9bf0" class="fill-263238"></path><path d="M31 88.25h-4v-4a1 1 0 0 0-2 0v4h-4a1 1 0 0 0 0 2h4v4a1 1 0 0 0 2 0v-4h4a1 1 0 0 0 0-2ZM25 189.47h-4v-4a1 1 0 0 0-2 0v4h-4a1 1 0 0 0 0 2h4v4a1 1 0 0 0 2 0v-4h4a1 1 0 0 0 0-2Z" fill="#ffdd00" class="fill-ffdd00"></path><path d="M37.49 22.24h-4v-4a1 1 0 0 0-2 0v4h-4a1 1 0 0 0 0 2h4v4a1 1 0 0 0 2 0v-4h4a1 1 0 0 0 0-2ZM235 94.25h-4v-4a1 1 0 0 0-2 0v4h-4a1 1 0 0 0 0 2h4v4a1 1 0 0 0 2 0v-4h4a1 1 0 0 0 0-2Z" fill="#40bdff" class="fill-40bdff"></path><path d="M236 162.6a6 6 0 1 1 6-6 6 6 0 0 1-6 6Zm0-10a4 4 0 1 0 4 4 4 4 0 0 0-4-4ZM238.17 36.93a6 6 0 1 1 6-6 6 6 0 0 1-6 6Zm0-10a4 4 0 1 0 4 4 4 4 0 0 0-4-4Z" fill="#ffdd00" class="fill-ffdd00"></path><path d="M37 225h-2.59l1.83-1.83a1 1 0 0 0-1.41-1.41L33 223.59V221a1 1 0 0 0-2 0v2.59l-1.83-1.83a1 1 0 0 0-1.41 1.41l1.83 1.83H27a1 1 0 0 0 0 2h2.59l-1.83 1.83a1 1 0 0 0 1.41 1.41l1.83-1.83V231a1 1 0 0 0 2 0v-2.59l1.83 1.83a1 1 0 0 0 1.41-1.41L34.41 227H37a1 1 0 0 0 0-2Z" fill="#40bdff" class="fill-40bdff"></path></svg>