<svg viewBox="0 0 60 52" xmlns="http://www.w3.org/2000/svg"><path d="M40 51a1 1 0 0 1-1 1h-2a1 1 0 0 1 0-2h2a1 1 0 0 1 1 1m20 0a1 1 0 0 1-1 1H43a1 1 0 0 1 0-2h16a1 1 0 0 1 1 1m-28 0a1 1 0 0 1-1 1H21a1 1 0 0 1 0-2h10a1 1 0 0 1 1 1m-16 0a1 1 0 0 1-1 1H1a1 1 0 0 1 0-2h14a1 1 0 0 1 1 1M2 31a1 1 0 0 1 1-1h2.84l-.423-2.853a1 1 0 0 1 1.979-.294L7.863 30H15a1 1 0 0 1 0 2H3a1 1 0 0 1-1-1m1-9h1.559l-.423-2.853a1 1 0 0 1 1.978-.294L6.582 22H15a1 1 0 0 1 0 2H3a1 1 0 0 1 0-2m12 20c-.551 0-1-.449-1-1 0-.551.449-1 1-1 .551 0 1 .449 1 1 0 .551-.449 1-1 1m0-4c-1.654 0-3 1.346-3 3s1.346 3 3 3 3-1.346 3-3-1.346-3-3-3m34 4c-.551 0-1-.449-1-1 0-.551.449-1 1-1 .551 0 1 .449 1 1 0 .551-.449 1-1 1m0-4c-1.654 0-3 1.346-3 3s1.346 3 3 3 3-1.346 3-3-1.346-3-3-3m0 8c-2.757 0-5-2.243-5-5s2.243-5 5-5 5 2.243 5 5-2.243 5-5 5m9.707-20.707-2.741-2.741L55 11c0-2.757-2.243-5-5-5h-7a1 1 0 0 0 0 2h7c1.626 0 3 1.374 3.003 3.083L53.913 22h-3.295l1.277-2.553a1.001 1.001 0 0 0-1.79-.894L48.382 22H43a1 1 0 0 0 0 2h11.586l2.707 2.707c.57.57.705 1.881.707 2.293v11h-2.08c-.487-3.387-3.4-6-6.92-6-3.86 0-7 3.14-7 7s3.14 7 7 7c3.52 0 6.433-2.613 6.92-6H59a1 1 0 0 0 1-1V29c0-.247-.036-2.451-1.293-3.707M15 46c-2.757 0-5-2.243-5-5s2.243-5 5-5 5 2.243 5 5-2.243 5-5 5M39 0H7C4.243 0 2 2.243 2 5c0 .05.004.099.011.148L3.339 14H1a1 1 0 0 0 0 2h14a1 1 0 0 0 0-2H5.361l-1.36-9.069A3.004 3.004 0 0 1 7 2h31v38H21.92c-.487-3.387-3.4-6-6.92-6-3.86 0-7 3.14-7 7s3.14 7 7 7c3.52 0 6.433-2.613 6.92-6H39a1 1 0 0 0 1-1V1a1 1 0 0 0-1-1" fill="#ffffff" fill-rule="evenodd" class="fill-000000"></path></svg>