<svg width="30" height="30" viewBox="0 0 30 30" fill="none" xmlns="http://www.w3.org/2000/svg">
<path d="M15 30C23.2843 30 30 23.2843 30 15C30 6.71573 23.2843 0 15 0C6.71573 0 0 6.71573 0 15C0 23.2843 6.71573 30 15 30Z" fill="#D80027"/>
<path d="M14.3852 12.2568L15.6159 13.9528L17.6091 13.3065L16.3764 15.0011L17.607 16.697L15.6145 16.0483L14.3819 17.7428L14.3832 15.6474L12.3906 14.9987L14.3839 14.3524L14.3852 12.2568Z" fill="#F0F0F0"/>
<path d="M11.0265 19.2388C8.68533 19.2388 6.78736 17.3408 6.78736 14.9996C6.78736 12.6585 8.68533 10.7605 11.0265 10.7605C11.7565 10.7605 12.4433 10.9451 13.0429 11.27C12.1022 10.35 10.8157 9.78223 9.39607 9.78223C6.51455 9.78223 4.17871 12.1181 4.17871 14.9996C4.17871 17.8811 6.51461 20.217 9.39607 20.217C10.8158 20.217 12.1023 19.6491 13.0429 18.7291C12.4433 19.0542 11.7565 19.2388 11.0265 19.2388Z" fill="#F0F0F0"/>
<style xmlns="" id="global-dark-mode" media="screen"/></svg>